<?xml version="1.0" encoding="UTF-8"?>
<svg id="Ebene_1" xmlns="http://www.w3.org/2000/svg" version="1.1" xmlns:xlink="http://www.w3.org/1999/xlink" viewBox="0 0 1355.8 1319.2">
  <!-- Generator: Adobe Illustrator 29.4.0, SVG Export Plug-In . SVG Version: 2.1.0 Build 152)  -->
  <defs>
    <style>
      .st0 {
        fill: #fff;
      }

      .st1 {
        fill: none;
      }

      .st2 {
        fill: #f7bc2f;
      }

      .st3 {
        clip-path: url(#clippath);
      }
    </style>
    <clipPath id="clippath">
      <rect class="st1" x="-499.3" y="-1547.6" width="2400.9" height="3387.4"/>
    </clipPath>
  </defs>
  <g class="st3">
    <path class="st2" d="M995.3,243.6c-41.6-34.7-87.9-61.4-138.5-80.7-48.4-18.4-99.9-28.6-151.5-31.8-103.1-6.4-209.7,18.1-298.1,72.1-87.3,53.3-156.6,134.9-198.9,227.8-42.5,93.3-61.5,198.1-48.4,300.2,3.4,26.6,8.2,52.9,15.6,78.8,7.3,25.7,16.7,50.6,27.5,74.9,20.7,46.9,48.4,90.1,80.7,129.8,64.8,79.9,150.5,141.6,245.8,179.7,54.2,21.7,112.1,34.6,170.3,38,33.5,1.9,66.9-.2,99.9-5.7,32.6-5.5,63.5-15.9,93.7-28.9,28-12.1,54.6-26.9,80.5-42.9,25.5-15.7,50.7-32.1,75-49.6,25.3-18.2,50-38,69.7-62.2,20.3-24.9,35.5-52.4,48.1-81.9,13-30.4,24.9-61.3,36.3-92.3,11.1-30.1,21.4-60.6,29.1-91.7,16.1-65.1,20.1-132.5,2.3-197.6-16.5-60.3-47.6-115.6-78.8-169.3-27.7-47.7-57.5-95.7-97.4-134.3-19.5-18.8-41.6-35.6-65.8-48-14.1-7.2-33.5-4.1-41.4,10.9-7.3,13.8-4.2,33.7,10.8,41.4,9.9,5,19.3,10.7,28.4,17.1,2.1,1.5,4.2,3.1,6.3,4.6,4.6,3.4-4.9-3.9-1.8-1.4,1,.8,2,1.6,3.1,2.5,4.5,3.6,8.8,7.4,13,11.3,7.9,7.3,15.4,15.1,22.6,23.2,3.5,4,6.9,8,10.3,12.1,1.5,1.9,3,3.7,4.5,5.6,3.8,4.7-4.5-5.9-.8-1.1,1,1.3,1.9,2.6,2.9,3.8,27.4,36.7,50.2,76.8,72.5,116.7,14,25,27.2,50.4,38.4,76.8-1-2.4-2-4.8-3-7.2,12.4,29.5,21.9,60.2,26.3,92-.4-2.7-.7-5.4-1.1-8,3.9,29.5,3.2,59.2-.6,88.6.4-2.7.7-5.4,1.1-8-5.4,39.6-16.2,78.1-29.1,115.8-12.7,37-26.8,73.8-41.9,109.9l3-7.2c-9.1,21.4-19.1,42.5-32.1,61.9-1.7,2.5-3.4,4.9-5.1,7.3-.7,1-1.4,1.9-2.1,2.9-3.7,5.1,3.6-4.4.9-1.2-3.9,4.7-7.8,9.4-12,13.9-7.6,8.1-15.7,15.7-24.1,22.9-4.2,3.6-8.6,7.1-12.9,10.6-3.3,2.6,6.2-4.7,1.2-1-.9.7-1.9,1.4-2.8,2.1-2.6,1.9-5.2,3.9-7.8,5.7-9.3,6.7-18.8,13.2-28.3,19.5-19.7,13.1-39.6,26.1-60,38.2-23,13.7-46.7,26.3-71.3,36.7,2.4-1,4.8-2,7.2-3-30.9,12.9-63,21.9-96.2,26.4,2.7-.4,5.4-.7,8-1.1-38.1,4.9-76.6,4.2-114.6-.8,2.7.4,5.4.7,8,1.1-46.8-6.4-92.6-19.1-136.1-37.4,2.4,1,4.8,2,7.2,3-26.1-11-51.3-24-75.4-38.8-12-7.3-23.7-15.1-35-23.3-2.8-2-5.6-4-8.3-6.1-1.4-1-2.8-2.1-4.1-3.1-.6-.4-1.2-.9-1.8-1.3-3.9-3,4.9,3.8,2,1.6-5.4-4.3-10.8-8.6-16.1-13-21.7-18.2-42-37.9-60.9-59-4.7-5.3-9.4-10.7-13.9-16.2-2-2.5-4-4.9-6-7.4-1.1-1.3-2.1-2.7-3.2-4-4-5.2,4.1,5.4.2.3-8.6-11.3-16.8-23-24.6-34.9-17.2-26.5-32.1-54.5-44.4-83.6,1,2.4,2,4.8,3,7.2-17.1-40.8-29.1-83.6-35.1-127.4.4,2.7.7,5.4,1.1,8-6-45.4-5.8-91.4.3-136.7-.4,2.7-.7,5.4-1.1,8,6.5-47.3,19.2-93.6,37.7-137.7-1,2.4-2,4.8-3,7.2,9.4-22.2,20.2-43.7,32.5-64.4,6.2-10.5,12.9-20.9,19.8-30.9,3.1-4.4,6.2-8.8,9.4-13.1,1.8-2.4,3.5-4.7,5.3-7-6.6,8.8.9-1,2.5-3.1,15.1-18.6,31.5-36.2,49.1-52.4,8.7-8,17.6-15.6,26.8-22.9,1.7-1.3,6.3-4.7-1.5,1.1,1.2-.9,2.3-1.8,3.5-2.7,2.4-1.8,4.7-3.5,7.1-5.2,5.2-3.8,10.5-7.4,15.8-10.9,22.8-15,47.1-27.9,72.2-38.6-2.4,1-4.8,2-7.2,3,39.9-16.8,82-28.1,124.9-33.9-2.7.4-5.4.7-8,1.1,44.4-5.9,89.5-5.9,134,0-2.7-.4-5.4-.7-8-1.1,42.3,5.7,83.7,16.8,123,33.3-2.4-1-4.8-2-7.2-3,19.6,8.3,38.6,17.9,56.8,28.9,8.9,5.4,17.6,11.1,26.1,17.1,4.4,3.1,8.6,7,13.2,9.7-1.3-.8-5.9-4.6-2-1.5,1,.8,2,1.5,2.9,2.3,2.3,1.9,4.6,3.8,6.9,5.7,6.3,5.3,12.9,8.9,21.4,8.9s16.3-3.3,21.4-8.9c10.3-11.2,13-31.9,0-42.8"/>
    <path class="st2" d="M958.1,172.4c-53.1,50.7-105.4,102.3-156.8,154.6-51.4,52.4-102,105.6-151.7,159.7-49.5,53.8-98.1,108.4-145.9,163.8-47.9,55.6-95,112-141.1,169.1-52.2,64.7-103.2,130.3-153.3,196.6-5.4,7.2-10.9,14.4-16.3,21.6-8.8,13.9-13.6,28.9-14.4,45-3.6,16.1-2.9,32.2,2.2,48.3,3.7,15.7,11,29.5,21.7,41.1,8.5,13.2,19.8,23.6,33.9,31.2,9.6,4.1,19.3,8.1,28.9,12.2,21.4,5.8,42.9,5.8,64.3,0,9.6-4.1,19.3-8.1,28.9-12.2,18.2-10.8,32.7-25.2,43.4-43.4,20.5-27.4,41.2-54.6,62.2-81.7-6.3,8.2-12.6,16.3-18.9,24.5,40.7-52.7,82.2-104.8,124.4-156.2,42.2-51.5,85.2-102.3,129-152.5,43.7-50.2,88.2-99.7,133.4-148.6,45.2-48.9,91.1-97.1,137.7-144.6,46.4-47.3,93.5-93.9,141.2-139.9,6.1-5.8,12.1-11.6,18.2-17.4,11.8-11,20.1-23.9,25-38.9,7.6-14.4,11.1-30,10.4-46.6.6-16.7-2.8-32.2-10.4-46.6-4.9-15-13.2-28-25-38.9-8.2-6.3-16.3-12.6-24.5-18.9-18.9-10.9-39.2-16.5-61.1-16.5-10.7,1.4-21.4,2.9-32.2,4.3-20.5,5.7-38.3,16.1-53.4,31.1"/>
    <path class="st2" d="M137.2,354.7c62.4,50.5,124.7,101,187.1,151.4,62.1,50.3,124.2,100.5,186.3,150.8,62.4,50.5,124.7,101,187.1,151.4,62.1,50.3,124.2,100.5,186.3,150.8l186.3,150.8,23.5,19c11,11.8,23.9,20.1,38.9,25,14.4,7.6,30,11.1,46.6,10.4,16.7.6,32.2-2.8,46.6-10.4,15-4.9,28-13.2,38.9-25,6.3-8.2,12.6-16.3,18.9-24.5,10.9-18.9,16.5-39.2,16.5-61.1-1.4-10.7-2.9-21.4-4.3-32.2-5.7-20.5-16.1-38.3-31.1-53.4-62.4-50.5-124.7-101-187.1-151.5l-186.3-150.8c-62.4-50.5-124.7-101-187.1-151.4-62.1-50.3-124.2-100.5-186.3-150.8-62.1-50.3-124.2-100.5-186.3-150.8l-23.5-19c-11-11.8-23.9-20.1-38.9-25-14.4-7.6-30-11.1-46.6-10.4-16.7-.6-32.2,2.8-46.6,10.4-15,4.9-28,13.2-38.9,25-6.3,8.2-12.6,16.3-18.9,24.5-10.9,18.9-16.5,39.2-16.5,61.1,1.4,10.7,2.9,21.4,4.3,32.2,5.7,20.5,16.1,38.3,31.1,53.4"/>
    <path class="st0" d="M1068.6,366.4c.9,4.1,2.1,8.2,2.7,12.4,1.1,7.8,2.3,15.6,2.9,23.5.4,5.7,1.1,11.4,1.6,17.1.7,8.4,1.5,16.8,1.9,25.3.3,6.8.9,13.7,1.2,20.5.3,5.8.4,11.6.6,17.4.2,6.3.1,12.6.8,18.9.2,2.1.1,4.3,0,6.4,0,4,.3,8.1.4,12.1,0,5.2.3,10.5.4,15.8,0,6.3.4,12.6.5,18.8.1,6.1.3,12.2.6,18.3.1,2.9.2,5.8.1,8.7,0,3.4.2,6.7.3,10.1,0,6.3.2,12.6.5,18.9.2,3.7.2,7.3.3,11,.3,7.4.7,14.8.7,22.2,0,5.8.3,11.6.4,17.4.1,5.9.5,11.8.6,17.7,0,5.9.3,11.8.5,17.7.2,5.5.3,11.1.4,16.6.1,6.4.6,12.7.5,19.1,0,3.8.3,7.5.4,11.3.2,7.4.5,14.8.4,22.2,0,4-.1,8.1-.5,12.1-.4,5.1-1.9,9.7-5.1,13.8-2.4,3-5.7,4.2-9.3,3.8-4-.5-8.1-1.3-11.8-3.3-2.9-1.6-5.9-3.3-7.1-6.5-1.2-2.9-2.4-6-2.7-9.2,0-.9-.2-1.9-.4-2.8-1.4-6.8-1.7-13.8-2.4-20.7-.5-5-.5-10.1-1.3-15.2-.3-1.8,0-3.7-.1-5.6-.4-4.4-.6-8.8-.6-13.2,0-4.2-.5-8.4-.6-12.6,0-5.3-.4-10.6-.4-16,0-3.7,0-7.5-.4-11.2-.3-3.2-.1-6.3,0-9.5,0-.8,0-1.7,0-2.5-.4-3.5-.2-6.9-.2-10.4,0-3.3-.2-6.6-.2-9.8,0-3.7,0-7.3,0-11,0-3.9-.1-7.9-.3-11.8-.2-4.2-.3-8.5-.2-12.7.1-8.8-.4-17.6-.3-26.4,0-5.4-.2-10.8-.2-16.3,0-5.3-.3-10.7-.2-16,0-5.8-.3-11.6-.3-17.4,0-3.7-.1-7.5-.3-11.2-.3-4.7-.5-9.4-.5-14s-.2-11.4-.4-17.1c-.1-4.3-.5-8.6-.6-12.9,0-3.4-1-6.8-.5-10.3.2-1.2-.3-2.4-.3-3.6,0-7.3-1.2-14.6-1.6-21.8-.5-7.6-2.1-15.1-3.7-22.5,0-.4-.2-.7-.3-1.1-.6-1.7-1.6-2.1-3-1-1.7,1.3-3.4,2.6-4.9,4.2-5.9,6.6-11.1,13.7-16,21.1-4.6,6.9-9.2,13.7-13.4,20.8-6.7,11.2-13.9,22.1-20.3,33.5-3.5,6.2-7,12.4-10.6,18.6-3.4,5.9-6.9,11.6-10.3,17.5-4.2,7.1-8.3,14.3-12.4,21.5-3.8,6.6-7.6,13.2-11.5,19.7-4.7,7.8-9.2,15.7-13.8,23.6-1,1.7-2.1,3.4-3.1,5-6,9.3-11.5,18.9-18,27.9-2,2.7-3.7,5.7-5.6,8.5-4.7,7-9.6,13.9-15.2,20.2-2.9,3.4-6.2,6.5-9.9,9.1-4.5,3-9.3,3.3-14.2,1.4-6.7-2.5-12.5-6.6-18.1-10.8-4.2-3.2-8.1-7-12.1-10.5-4.9-4.3-9.4-9.1-14-13.7-6.3-6.4-12.2-13.2-18.3-19.8-5.2-5.7-10-11.7-15.2-17.3-2.9-3.2-5.5-6.6-8.3-9.9-3.7-4.4-7.4-8.7-11-13.1-6.5-7.7-13.1-15.4-19.5-23.2-5.8-7.1-12.1-13.8-17.8-21-2.4-3-5.1-5.7-7.7-8.5-1.7-2-3.4-4-5.1-5.9-2.6-2.8-5.2-5.6-7.8-8.4-1.7-1.8-3.4-3.5-5.1-5.2-1.8-1.9-4-3.3-6-5.1-.2-.2-.5-.3-.7-.5-3.5-2.2-5-1.8-7.6,1.4-2.1,2.5-3.3,5.5-4.4,8.4-1,2.7-2,5.4-2.9,8.2-2.2,6.2-3.5,12.6-5.2,18.9-1.8,7.1-3.3,14.2-4.8,21.3-1.6,7.5-3.2,15-4.6,22.5-1.3,6.8-2.7,13.6-3.9,20.4-1.1,6.2-2.4,12.3-3.4,18.5-1,6.2-2.7,12.2-3.8,18.3-1.8,9.9-4,19.8-6.3,29.6-1.6,6.9-3.5,13.8-5.7,20.5-1.6,4.7-2.8,9.5-4.9,14.1-2.1,4.8-4,9.7-8.1,13.4-2.9,2.6-6.2,3.6-9.9,2.8-6.2-1.2-11.9-3.9-17.6-6.5-10.4-4.7-20.2-10.7-30.3-16.1-7.9-4.2-15.2-9.3-23-13.6-6.2-3.4-12-7.4-18-11.1-9.7-6-19.4-12-28.8-18.3-14.4-9.6-29.2-18.5-43.6-28.1-12.5-8.3-25.3-16.2-37.9-24.2-5.5-3.5-10.9-7.1-16.5-10.2-6.3-3.5-12.2-7.8-18.5-11.4-8.6-4.8-17.1-9.8-26.3-13.4-1-.4-2-1-3.2-.8-1.1.1-1.9.6-1.6,1.8,1.1,4.2,1.4,8.5,3.7,12.3.4.6.5,1.4.7,2.1.7,2.3,1.5,4.4,2.5,6.6,1.6,3.5,2.8,7.2,4.4,10.6,1.5,3.3,2.7,6.8,4.6,10,1,1.7,1.7,3.6,2.5,5.3,2,4.8,4.6,9.2,6.6,14,1.8,4.2,4.3,8.1,6.2,12.3,1.2,2.7,2.4,5.3,3.7,7.9,2.3,4.5,4.6,9,6.8,13.5.9,1.8,1.6,3.6,2.5,5.3,2.7,5,5.3,10.2,7.6,15.4,2,4.5,4.3,9,6.6,13.4,2.9,5.8,5.5,11.9,8.8,17.6,2.3,4.1,4,8.5,6.1,12.6,2.1,4,4,8,5.9,12.1,2.3,4.7,4.5,9.5,6.8,14.2,2,4,4,8,6,12.1,2.3,4.8,4.6,9.7,6.9,14.5,2.2,4.7,4.5,9.3,6.7,14,2.2,4.7,4.3,9.4,6.5,14,1.5,3.3,3.2,6.6,4.6,9.9,3,7,6.2,13.9,9.3,20.8,2.5,5.5,4.9,11,7.2,16.5,2.6,6.1,5.1,12.3,7.6,18.5,1.8,4.3,3.4,8.7,5.1,13.1,1.6,4.2,3.4,8.3,4.7,12.6,1,3.5,2.6,6.8,3.4,10.4,1.2,5.4.2,10.5-2.5,15.1-1.7,2.9-3.8,5.6-6.4,7.9-3,2.5-6.5,4.6-10.2,5.1-5.9.9-11.2-1.2-15.3-5.8-3.3-3.8-5.4-8.3-7.2-12.9-1.2-3-2.6-6-3.9-9-1.5-3.4-3-6.9-4.4-10.4-1.5-3.6-3-7.3-4.5-10.9-1.5-3.6-3-7.3-4.6-10.9-1.6-3.7-3.2-7.4-4.8-11.1-2.4-5.6-4.6-11.3-7.2-16.8-1.7-3.6-3-7.3-4.7-10.8-3.3-7.3-6.3-14.9-9.6-22.2-3.2-7.1-6.2-14.3-9.6-21.3-1.5-3.1-2.7-6.4-4.1-9.6-2.2-4.9-4.4-9.8-6.6-14.6-2.6-5.7-5.1-11.5-7.7-17.2-2.1-4.6-4.3-9.2-6.4-13.8-2.3-5-4.5-10.1-6.9-15.1-1.2-2.6-2.4-5.3-3.7-7.9-2.4-4.7-4.6-9.5-6.8-14.2-2-4.2-3.9-8.5-6-12.8-3.4-6.9-6.8-13.8-10-20.8-1.1-2.4-2.2-4.8-3.4-7.1-2.3-4.4-4.4-8.9-6.5-13.4-1.9-4.1-3.8-8.2-5.8-12.2-2.3-4.8-4.7-9.6-7-14.4-2.3-4.6-4.5-9.3-6.8-13.9-2.3-4.7-4.4-9.6-6.8-14.2-2.4-4.5-4.4-9.1-6.6-13.7-2.8-5.9-5.6-11.9-8.3-17.9-3-6.7-6.1-13.3-9.1-20-3.5-8-6.9-16-10.5-24-2-4.4-3.6-9.2-3.4-14.2.2-4.3,1.4-8.2,4.5-11.5,3.7-3.9,8.1-6.4,13.2-7.4,7.5-1.5,15-1.2,22.1,1.8,4.6,1.9,9,4.3,13.2,6.9,7.5,4.5,15,8.9,22.5,13.4,9,5.4,17.9,11.1,26.8,16.7,15.1,9.4,30,19,45,28.6,6.9,4.4,13.9,8.6,20.6,13.3,8.9,6.2,18.3,11.7,27.4,17.8,7.5,5,15.3,9.5,22.8,14.5,8.3,5.7,17,10.9,25.4,16.3,5.4,3.5,10.7,7,16.2,10.3,5.8,3.4,11.3,7.1,17.1,10.5,8.9,5.2,17.8,10.4,26.8,15.5,5.5,3.1,11.1,5.8,16.9,8.2.3.1.5.2.8.3,1.2.5,2.1,1.9,3.6,1.3,1.4-.5,2.6-1.6,3.5-2.7,3.6-4.4,6-9.5,7.8-14.8,1.7-5.1,3.4-10.1,4.8-15.3,1.4-5.1,2.5-10.4,3.5-15.6.9-4.5,1.8-9,2.8-13.5,1.6-7.4,2.7-14.9,4.3-22.3,1.4-6.6,2.3-13.2,3.5-19.9,1.2-6.6,2.4-13.3,3.5-19.9.8-5.1,1.9-10.1,2.8-15.2,1.1-5.9,2.3-11.7,3.4-17.6.9-4.6,1.9-9.1,3.2-13.6.7-2.5.7-5.2,1.5-7.7,2.2-6.8,3.6-13.7,6-20.5,2-5.6,4-11.1,6.8-16.3,2.1-3.8,4.5-7.4,7.8-10.2,3.8-3.3,8.1-4.2,12.8-2.9,6.6,1.8,12.3,5.5,17.7,9.6,4.8,3.6,9.4,7.5,13.8,11.6,4.6,4.3,8.9,8.9,13.3,13.3,6.9,6.9,13.5,14,20,21.3,7.7,8.6,15.4,17.3,22.7,26.3,4.4,5.5,9.2,10.6,13.7,16,8,9.5,16,19.1,24,28.6,5.3,6.2,10.7,12.3,16,18.5,4.7,5.6,9.9,10.8,14.8,16.2,5.4,6,11.1,11.6,17.4,16.7,3.3,2.7,6.2,4,11.4,0,5.8-4.4,10.6-9.7,15.1-15.3,5.1-6.4,9.8-13,14.7-19.6,3.7-5.1,7.3-10.2,10.8-15.5,3.8-5.7,7.2-11.7,11.2-17.3,8.8-12.4,16.3-25.6,24.7-38.2,3.4-5.2,6.5-10.7,9.9-16,4.8-7.6,9.6-15.3,14.3-23,4.3-6.9,8.5-13.9,12.9-20.9,4.8-7.7,9.8-15.4,14.7-23,4.8-7.4,9.6-14.8,14.4-22.2,5.8-8.9,11.9-17.6,18.1-26.2,4.1-5.7,8.3-11.4,12.9-16.7,4.2-4.8,8.5-9.5,13.6-13.3,6.4-4.7,12.3-2.9,16,4.1,1.7,3.2,3.1,6.4,3.9,9.9.8,3.5,1.6,7,2.3,10.5,0,0,0,0,0,0M1051.8,772.5c.7,4.5,1.5,7.9,2.6,11.2.7,2.4,2.1,4,4.2,5.5,4,2.9,8.6,4,13.4,4.9,3.6.6,6.4-.6,8.8-3.3,2.6-3,3.7-6.7,4.5-10.5.9-4.4.9-9,.8-13.5,0-2.6.2-5.3,0-7.9-.2-3.6-.3-7.3-.4-11,0-5.4-.3-10.9-.5-16.3,0-3.7,0-7.3-.3-11-.4-4.3-.2-8.6-.3-13,0-2.9-.3-5.8-.2-8.7.2-3.5-.2-6.9-.4-10.4-.1-3.4-.3-6.8-.3-10.1-.1-6.9-.6-13.9-.5-20.8,0-3.4-.3-6.7-.3-10.1,0-3.1,0-6.2-.1-9.3-.1-3.6-.4-7.1-.4-10.7,0-3.5-.2-7-.3-10.4-.1-3.5-.2-6.9-.3-10.4-.2-6.5-.3-12.9-.5-19.4,0-2.9-.2-5.8-.2-8.7,0-3.4-.2-6.7-.2-10.1,0-6-.5-12-.5-18,0-2.4-.2-4.9-.2-7.3,0-4.1-.3-8.3-.3-12.4,0-3.2-.4-6.4-.3-9.6.1-3.4-.2-6.8-.3-10.1-.1-3.8-.3-7.5-.3-11.3,0-3.4-.3-6.7-.4-10.1,0-3.7-.3-7.5-.4-11.3,0-3-.5-6-.4-9,0-4.1-.3-8.3-.6-12.4-.3-3.6-.3-7.3-.7-11-.5-4.5-.4-9-.7-13.5-.6-7.2-1.4-14.4-2.1-21.6-.6-6.1-.9-12.2-1.7-18.3-.9-7.2-2-14.4-3.4-21.5-1.3-6.7-2.5-13.5-5-19.9-1-2.6-2.2-5-3.8-7.2-3-4.1-7-4.8-11.9-1.6-4.1,2.7-7.4,6.4-10.7,10-4.9,5.2-9.3,10.9-13.5,16.6-6.5,8.9-12.9,17.9-19,27-5.8,8.6-11.4,17.3-16.9,26.1-11.8,19-24,37.8-35.7,57-8.4,13.8-17.1,27.3-25.7,40.9-7.4,11.7-14.9,23.3-22.6,34.8-6.9,10.2-14,20.3-21.3,30.2-4.8,6.5-9.7,12.9-15.4,18.6-3.1,3.1-6.2,6-9.9,8.3-1.8,1.1-3.7,1.6-5.8.5-1.6-.8-3.1-1.7-4.6-2.8-4.5-3.4-8.5-7.4-12.4-11.4-4.8-4.9-9.6-9.8-14.1-14.9-6-6.9-12-13.6-17.8-20.7-8.4-10.2-17.1-20.2-25.7-30.3-6.7-7.9-13.1-15.9-19.9-23.7-6.4-7.4-12.8-14.8-19.3-22-7.6-8.4-15.4-16.5-23.2-24.6-5.8-6-11.9-11.7-18.4-17-5.6-4.6-11.5-8.8-18.2-11.7-6.5-2.8-12.5-1.8-17,3.1-1.8,1.9-3.4,4-4.7,6.3-3.1,5.4-5.5,11.1-7.4,17-2.9,8.8-5.4,17.8-7.4,26.9-2.1,9.4-4.2,18.9-6,28.4-2,10.9-4.1,21.8-6.1,32.7-2.1,11.6-3.9,23.3-6.1,34.9-2.4,12.7-4.9,25.4-7.8,38.1-2.1,9.4-5,18.7-8.9,27.5-1.7,3.9-3.9,7.5-7.1,10.4-2.1,1.9-3.1,2.1-5.5.7-1.3-.7-2.7-1.4-4-2-3.2-1.5-6.4-2.8-9.5-4.4-11.3-5.8-22.1-12.5-33-18.9-16.3-9.6-32.2-20-48.1-30.1-19.8-12.6-39.5-25.2-59-38.3-5.2-3.5-10.6-6.8-16-10.2-29.9-19-59.4-38.5-90-56.4-6.8-4-13.4-8.4-20.7-11.6-10.7-4.8-21.4-5.6-31.9.4-4.8,2.7-7.8,6.8-8.4,12.6-.5,5.1,1,9.7,2.9,14.2,2.2,5.2,4.5,10.4,6.7,15.5,2.4,5.6,4.8,11.2,7.4,16.8,3.5,7.7,7.2,15.3,10.7,23,2.6,5.5,4.9,11.2,7.6,16.7,4.1,8.2,8.1,16.6,12.1,24.9,3.7,7.7,7.3,15.5,11.1,23.1,3.4,6.8,6.5,13.8,9.8,20.6,1.9,4,3.8,8,5.7,12,2.4,5,4.9,10,7.3,14.9,2.2,4.5,4.3,9,6.5,13.5,2,4.2,4.1,8.5,6,12.8,2,4.5,4.1,8.9,6.3,13.2,2.4,4.9,4.4,9.9,6.9,14.8,2.4,4.9,4.4,10,6.7,14.9,3.6,7.9,7.1,15.8,10.8,23.6,1.1,2.4,2.1,4.8,3.1,7.2,2.4,5.5,4.9,10.9,7.4,16.4,2.3,5.2,4.6,10.5,6.9,15.8,1.6,3.7,3.2,7.4,4.9,11.1,1.4,3,2.5,6.1,3.8,9.1,2.4,5.7,5,11.3,7.4,17,1.3,3,2.5,6.1,3.9,9.1,2.6,5.5,4.8,11.2,7.3,16.8,2.5,5.7,5,11.4,7.2,17.2,1,2.5,2,5.1,3.1,7.6,2.4,5.6,5,11.1,7.4,16.7,1.3,3.2,2.8,6.2,5,8.8,1.6,2,3.6,3.8,6.1,4.9,4.8,2.1,9.3,1.9,14-.7,6.3-3.4,10.1-8.6,12.4-15.1.7-1.9,1-3.9.8-5.8-.5-4.4-1.6-8.8-3.3-12.8-2-4.9-3.4-9.9-5.4-14.8-1.7-4-3.3-8-4.8-12.1-.9-2.5-1.8-5.1-3.1-7.6-1.9-3.7-3-7.7-4.8-11.4-1.6-3.2-2.5-6.7-4.1-9.9-2.7-5.4-4.7-11.1-7.4-16.5-.8-1.7-1.9-3.3-2.4-5.1-1.7-5.2-4.4-10-6.7-14.9-2.1-4.7-4.3-9.4-6.6-14-.9-1.8-1.9-3.6-2.7-5.6-1.9-4.7-4.4-9.1-6.4-13.8-2.2-5-4.8-9.8-7.1-14.7-1.9-3.9-3.7-7.8-5.6-11.7-2.2-4.5-4.5-8.9-6.7-13.3-2.1-4.4-4.2-8.8-6.3-13.2-2.1-4.2-4.3-8.4-6.4-12.5-.9-1.8-2-3.6-2.7-5.6-1-2.7-2.5-5.2-3.8-7.9-1.9-4.2-4.1-8.2-6.2-12.3-2.2-4.4-4.3-8.8-6.4-13.2-2.2-4.5-4.5-8.9-6.6-13.3-1.9-4-3.9-7.9-5.8-11.9-2.4-5-4.8-10-7.3-14.9-2-4-3.7-8-5.7-11.9-2.9-5.6-5.4-11.3-8-17.1-1.2-2.8-2.3-5.5-3.5-8.3-2-4.7-4.2-9.2-5.5-14.2-.2-.9-.6-1.8-1-2.6-1.2-2.7-2.3-5.4-2.6-8.3-.3-2.9,1.2-4.3,4-3.7,1,.2,2,.5,3,.9,9.1,3.9,17.7,8.7,26.3,13.6,4.6,2.6,8.9,5.6,13.4,8.3,7.5,4.5,14.8,9.3,22.3,13.9,10.3,6.3,20.4,12.8,30.6,19.2,2.9,1.8,5.6,3.8,8.4,5.6,13.6,8.9,27.5,17.5,41.1,26.5,9.2,6.1,18.6,11.8,27.9,17.6,10.3,6.4,20.5,13,31.1,19,4.7,2.6,9.3,5.4,13.9,8,10.9,6.1,21.8,12.3,33.3,17.2,4.1,1.7,8.2,3.4,12.6,4.1,2.4.4,4.5-.2,6.4-1.4,1.7-1,3-2.5,4.2-4.1,3.2-4.6,5.5-9.7,7.2-14.9,4.1-12.4,7.7-24.9,10.5-37.7,1.7-7.6,3.3-15.2,4.8-22.9,1.8-9.3,4-18.5,5.6-27.9,2.1-12.1,4.5-24.2,6.9-36.2,1.8-9.1,3.8-18.2,5.7-27.3,2.6-11.9,5.5-23.8,10-35.2,1.4-3.4,2.9-6.7,5.2-9.6,2.5-3.2,5.4-3,7.9-1.4,3.1,2,5.9,4.4,8.5,7,8.8,8.5,16.6,17.9,24.6,27.1,8.1,9.4,16.2,18.8,24.1,28.3,7.7,9.4,15.6,18.6,23.4,27.8,6.5,7.7,12.8,15.5,19.5,22.9,6.5,7.3,12.8,14.7,19.6,21.7,4.4,4.5,8.8,9,13.3,13.4,5.2,5.1,10.8,9.9,16.6,14.4,5.3,4.2,10.9,8,17.3,10.5,4.7,1.8,9.2,1.7,13.4-1.2,2.5-1.7,4.8-3.7,6.9-5.8,5.3-5.3,9.5-11.4,13.9-17.4,4.7-6.5,9.1-13.2,13.5-19.8,3.9-5.9,7.6-11.9,11.2-17.9,6.1-10.3,12.6-20.3,18.4-30.7,5.2-9.2,10.8-18.1,16-27.3,4.2-7.6,8.7-15,13-22.4,6.9-11.9,13.5-23.9,20.6-35.7,8.4-14,17.1-27.9,25.9-41.7,4-6.3,8.1-12.7,12.8-18.6,3.1-3.8,5.9-7.8,9.5-11.1,1-1,2.1-1.9,3.4-2.5,2.7-1.3,4.4-.7,5.2,2,1.4,5,2.4,10.1,2.8,15.3.4,5.9,1.3,11.8,1.8,17.6.4,4.2.4,8.4.7,12.7.2,2.5.6,5,.5,7.6-.3,4.2.6,8.4.5,12.7,0,3.5.4,6.9.5,10.4.2,5.7,0,11.5.3,17.2.4,5.9.4,11.8.6,17.7.2,6.9.3,13.9.4,20.8,0,2.3.2,4.7,0,7-.2,3.6.1,7.1.1,10.7,0,2.2-.2,4.5,0,6.8.2,3.2.5,6.4.2,9.6-.3,3.1,0,6.2.2,9.3,0,3.4,0,6.8.1,10.1.1,2.2.1,4.5.1,6.7,0,5.5-.1,11.1.1,16.6.3,5.4,0,10.9.2,16.3.2,6.3.2,12.6.4,18.9,0,3,0,6,.1,9,.1,3.7-.1,7.3.2,11,.2,3.1.3,6.2.3,9.3,0,6,.3,12,.5,18,.3,6.3.4,12.6.8,18.9.4,7.4.8,14.8,1.5,22.2.7,6.9.7,13.9,2.5,19.6"/>
    <path class="st0" d="M1103.5,766.3c-1.6-74.9-4.2-148.4-6-223.2-3.1-65.4,0-132.7-17.5-197.1-15.4-41.2-50.7-17.5-65.8,6.9-59.4,77.3-98.5,166-161.1,240-51.6-52.2-90.1-111.8-145.8-160.7-59.9-51.5-78.9,21.8-87.2,68.9-10.1,40-13.5,99.6-29.4,138.3-93.8-52.1-176-115.4-269.8-167.3-18.2-9.3-41.8-6.6-55.2,6.5-11.5,11.3-13.7,27.6-5.9,43.7,15.1,35.8,32.2,71.2,48.7,105.4,37.5,77.3,76.3,159,112.4,245.8,9,21.5,17.7,44.2,29.6,65,18,25.4,56.9,10.7,63.4-16.7,4.4-18.5-4.3-30.3-8.6-44.4-39.3-99.2-88.1-186.9-132.7-282.2,298.7,180.9,248,211.8,313.7-73.4,41,44.9,76,93.6,119.8,136.7,39.7,41.8,70.7,40.9,98.9-8.2,44.2-65.1,74.6-128.2,118-195.2,4,57.1,3.7,114.5,4.6,171.7.3,48.5.5,98.7,6.6,147.7,2.1,21.8,14,34.3,35.3,37,24.9,1.5,35-19,33.8-45.2Z"/>
    <path class="st0" d="M1083.2,837.5c-12.8-18-58.9-13-80.1-13.2-38.8,1.2-77,8.4-114.9,15.3-61.2,11.3-120.2,24.6-180.6,39.9-54.7,14.6-165.9,41.5-201.2,84.6-10.4,15.1-9.5,46.7,13.2,47.7,13.7,1,25.4-7.2,38.4-10.9,21.2-7.6,42-16.3,63.6-23.1,67.3-22,137.8-40.3,207-53.1,56.3-10.9,113.1-16.8,170.1-21.5,20.6-3.4,63.3-1.9,78.1-14.7,15.1-12.6,17.9-36.4,6.3-50.8Z"/>
  </g>
</svg>